<svg id="Calque_1" data-name="Calque 1" xmlns="http://www.w3.org/2000/svg" viewBox="0 0 306 362">
    <defs>
        <style>.cls-1{fill:#ee502e;}.cls-2{fill:#cf4520;}.cls-3{fill:#fff;}.cls-4{fill:#e5e9eb;}</style>
    </defs>
    <rect class="cls-1" x="268.14" y="151.86" width="11.64" height="54.62"
          transform="translate(-45.97 248.48) rotate(-45.41)"/>
    <polygon class="cls-2" points="252.61 161.96 291.49 200.29 289.32 202.49 250.43 164.14 252.61 161.96"/>
    <rect class="cls-1" x="269.49" y="208.53" width="34.63" height="11.64"
          transform="translate(-20.8 397.6) rotate(-67.56)"/>
    <polygon class="cls-2"
             points="289.81 197.91 276.96 229.02 274.81 228.13 288.03 196.13 298.79 200.57 298.42 201.46 289.81 197.91"/>
    <polygon class="cls-2"
             points="297.27 200.57 287.81 196.66 288.03 196.13 298.79 200.57 285.57 232.57 284.27 232.03 297.27 200.57"/>
    <circle class="cls-1" cx="254.52" cy="160" r="23.52" transform="translate(-22.62 43.49) rotate(-9.35)"/>
    <path class="cls-2"
          d="M254.52,177.2a27.37,27.37,0,0,1-23.07-12.64,23.51,23.51,0,0,0,46.13,0A27.34,27.34,0,0,1,254.52,177.2Z"/>
    <path class="cls-1" d="M305.18,198.35a11.78,11.78,0,1,0-11.77,11.77A11.77,11.77,0,0,0,305.18,198.35Z"/>
    <path class="cls-2"
          d="M293.41,206.3a13.49,13.49,0,0,1-11.65-6.73,11.71,11.71,0,0,0,23.3,0A13.51,13.51,0,0,1,293.41,206.3Z"/>
    <path class="cls-1"
          d="M281.58,264.35a5.83,5.83,0,0,1,.19-8.23,12.27,12.27,0,0,0,3.86-8.94,12.39,12.39,0,0,0-24.78-.25c0,.22,0,.46,0,.61a5.83,5.83,0,0,1-5.75,5.9h-.07a5.82,5.82,0,0,1-5.8-5.37l-.06-.89a24,24,0,1,1,40.6,17.36,5.82,5.82,0,0,1-8.23-.19Z"/>
    <path class="cls-2"
          d="M281.58,261.09a5.84,5.84,0,0,0,8.23.18,23.81,23.81,0,0,0,7.38-15.71c0,.54.08,1.08.08,1.62a23.82,23.82,0,0,1-7.46,17.36,5.82,5.82,0,0,1-8.23-.19,5.76,5.76,0,0,1-1.29-5.59A5.72,5.72,0,0,0,281.58,261.09Z"/>
    <path class="cls-2"
          d="M255.07,250.17h.07a5.82,5.82,0,0,0,5.75-5.89c0-.16,0-.39,0-.61a12.39,12.39,0,0,1,24.78.25,11,11,0,0,1-.17,1.63,12.36,12.36,0,0,0-24.61,1.38c0,.22,0,.46,0,.61a5.83,5.83,0,0,1-5.75,5.9h-.07a5.82,5.82,0,0,1-5.8-5.37l-.06-.89c0-.71,0-1.41.1-2.1A5.82,5.82,0,0,0,255.07,250.17Z"/>
    <rect class="cls-1" x="4.6" y="173.65" width="54.62" height="11.64"
          transform="translate(-116.81 74.07) rotate(-44.59)"/>
    <polygon class="cls-2" points="53.27 162.25 14.39 200.59 16.55 202.79 55.45 164.44 53.27 162.25"/>
    <rect class="cls-1" x="13.26" y="197.33" width="11.64" height="34.63"
          transform="translate(-80.5 23.54) rotate(-22.44)"/>
    <polygon class="cls-2"
             points="16.07 198.2 28.92 229.31 31.07 228.43 17.85 196.42 7.09 200.86 7.46 201.75 16.07 198.2"/>
    <polygon class="cls-2"
             points="8.61 200.86 18.07 196.96 17.85 196.42 7.09 200.86 20.31 232.87 21.61 232.33 8.61 200.86"/>
    <circle class="cls-1" cx="51.36" cy="160.29" r="23.52" transform="translate(-116.44 173.45) rotate(-76.72)"/>
    <path class="cls-2"
          d="M51.36,177.49a27.39,27.39,0,0,0,23.07-12.63,23.52,23.52,0,0,1-46.14,0A27.39,27.39,0,0,0,51.36,177.49Z"/>
    <circle class="cls-1" cx="12.47" cy="198.64" r="11.78"/>
    <path class="cls-2"
          d="M12.47,206.59a13.52,13.52,0,0,0,11.65-6.72,11.71,11.71,0,0,1-23.3,0A13.5,13.5,0,0,0,12.47,206.59Z"/>
    <path class="cls-1"
          d="M271.05,119.22a117.53,117.53,0,0,0-235,0c0,64.91,52.62,178.47,117.52,178.47S271.05,184.13,271.05,119.22Z"/>
    <ellipse class="cls-3" cx="153.52" cy="119.22" rx="97.43" ry="76.37"/>
    <path class="cls-4"
          d="M153.52,47.68c39.46,0,73.65,17.6,90.54,43.33-14.32-28.21-49.44-48.16-90.54-48.16S77.3,62.8,63,91C79.88,65.28,114.07,47.68,153.52,47.68Z"/>
    <ellipse class="cls-1" cx="212.64" cy="109.2" rx="16" ry="22.79"/>
    <path class="cls-2"
          d="M212.64,127c-7.3,0-13.51-6.56-15.93-15.76.72,11.64,7.57,20.77,15.93,20.77s15.21-9.13,15.93-20.77C226.16,120.42,219.94,127,212.64,127Z"/>
    <ellipse class="cls-1" cx="95.6" cy="109.2" rx="16" ry="22.79"/>
    <path class="cls-1"
          d="M153.52,173.21a78.17,78.17,0,0,1-40.27-10.71,3.88,3.88,0,0,1,4-6.66,70.33,70.33,0,0,0,36.27,9.61,70.35,70.35,0,0,0,36.28-9.61,3.88,3.88,0,0,1,4,6.66A78.12,78.12,0,0,1,153.52,173.21Z"/>
    <path class="cls-2"
          d="M193.79,160a78.12,78.12,0,0,1-40.27,10.71A78.17,78.17,0,0,1,113.25,160a3.89,3.89,0,0,1-1.6-2,3.83,3.83,0,0,0,1.6,4.57,78.17,78.17,0,0,0,40.27,10.71,78.12,78.12,0,0,0,40.27-10.71,3.83,3.83,0,0,0,1.6-4.57A3.79,3.79,0,0,1,193.79,160Z"/>
    <path class="cls-2"
          d="M268.67,142.87c-10.95,53.57-58.34,131.54-115.15,131.54s-104.2-78-115.14-131.54c-.1-.45-.39-.08-.26.85,10.37,65.41,58.08,154,115.4,154s105-88.56,115.41-154C269.05,142.79,268.77,142.42,268.67,142.87Z"/>
    <path class="cls-2"
          d="M95.6,127c-7.3,0-13.51-6.56-15.93-15.76C80.39,122.86,87.24,132,95.6,132s15.22-9.13,15.94-20.77C109.12,120.42,102.91,127,95.6,127Z"/>
    <path class="cls-4"
          d="M231,351.81c0-5.36-34.69-9.7-77.48-9.7s-77.47,4.34-77.47,9.7,34.68,9.7,77.47,9.7S231,357.16,231,351.81Z"/>
    <path class="cls-1"
          d="M20.09,266.44a5.76,5.76,0,0,1-4-1.61,23.78,23.78,0,0,1-7.46-17.35,24,24,0,0,1,48.06,0l-.06.88a5.82,5.82,0,0,1-5.8,5.37h-.08A5.82,5.82,0,0,1,45,247.84c0-.16,0-.4,0-.61a12.39,12.39,0,0,0-24.78.25,12.26,12.26,0,0,0,3.85,8.93,5.82,5.82,0,0,1-4,10Zm36.51-18v.08S56.6,248.47,56.6,248.44Zm0-.42Zm0,0v0Z"/>
    <path class="cls-2"
          d="M24.29,261.38a5.81,5.81,0,0,1-8.22.19,23.76,23.76,0,0,1-7.38-15.72c0,.54-.08,1.08-.08,1.63a23.78,23.78,0,0,0,7.46,17.35,5.75,5.75,0,0,0,9.52-5.77A5.71,5.71,0,0,1,24.29,261.38Z"/>
    <path class="cls-2"
          d="M50.81,250.47h-.08a5.82,5.82,0,0,1-5.74-5.9c0-.15,0-.39,0-.6a12.39,12.39,0,1,0-24.62,1.87A12.36,12.36,0,0,1,45,247.23c0,.21,0,.45,0,.61a5.82,5.82,0,0,0,5.74,5.89h.08a5.82,5.82,0,0,0,5.8-5.37l.06-.88c0-.71-.05-1.41-.11-2.11A5.8,5.8,0,0,1,50.81,250.47Z"/>
</svg>